<svg width="49" height="80" viewBox="0 0 49 80" fill="none" xmlns="http://www.w3.org/2000/svg">
<path d="M48.728 24.2424C48.728 48.4848 24.4856 48.4848 24.4856 80C24.4856 48.4848 0.243164 48.4848 0.243164 24.2424C0.243164 10.9091 11.1523 0 24.4856 0C37.8189 0 48.728 10.9091 48.728 24.2424Z" fill="#F17F15"/>
<path d="M24.4852 42.0607C34.3259 42.0607 42.3034 34.0832 42.3034 24.2425C42.3034 14.4018 34.3259 6.42432 24.4852 6.42432C14.6445 6.42432 6.66699 14.4018 6.66699 24.2425C6.66699 34.0832 14.6445 42.0607 24.4852 42.0607Z" fill="white"/>
<path d="M22.183 26.9092C26.936 26.9092 30.789 25.5525 30.789 23.8789C30.789 22.2053 26.936 20.8486 22.183 20.8486C17.43 20.8486 13.5769 22.2053 13.5769 23.8789C13.5769 25.5525 17.43 26.9092 22.183 26.9092Z" stroke="#F17F15" stroke-miterlimit="10" stroke-linecap="round" stroke-linejoin="round"/>
<path d="M15.395 25.6971C16.4859 24.6062 19.0314 23.8789 22.1829 23.8789C25.2132 23.8789 27.8799 24.6062 28.9708 25.6971" stroke="#F17F15" stroke-miterlimit="10" stroke-linecap="round" stroke-linejoin="round"/>
<path d="M30.789 23.8789C30.789 28.3638 30.0617 34.5456 22.183 34.5456C14.183 34.5456 13.5769 28.3638 13.5769 23.8789" stroke="#F17F15" stroke-miterlimit="10" stroke-linecap="round" stroke-linejoin="round"/>
<path d="M30.6678 26.5457C30.6678 26.5457 35.3951 23.8791 35.3951 28.1215C35.3951 33.3336 29.092 31.6366 29.092 31.6366" stroke="#F17F15" stroke-miterlimit="10" stroke-linecap="round" stroke-linejoin="round"/>
<path d="M30.4253 29.091C31.0314 29.4547 32.4859 29.2122 32.6071 28.9698C33.2132 27.5153 31.0314 28.7274 30.7889 28.8486" stroke="#F17F15" stroke-miterlimit="10" stroke-linecap="round" stroke-linejoin="round"/>
<path d="M22.3041 12.6061C24.4859 14.4243 20.4859 16.1212 22.3041 17.8182" stroke="#F17F15" stroke-miterlimit="10" stroke-linecap="round" stroke-linejoin="round"/>
</svg>
