<svg width="39" height="36" viewBox="0 0 39 36" fill="none" xmlns="http://www.w3.org/2000/svg">
<path d="M17.7055 22.8745C24.7225 22.8745 30.4109 20.8954 30.4109 18.454C30.4109 16.0127 24.7225 14.0336 17.7055 14.0336C10.6884 14.0336 5 16.0127 5 18.454C5 20.8954 10.6884 22.8745 17.7055 22.8745Z" stroke="#555555" stroke-width="2" stroke-linecap="round" stroke-linejoin="round"/>
<path d="M7.7749 21.1951C9.38093 19.5801 13.214 18.4468 17.7144 18.4468C22.2149 18.4468 26.0533 19.5801 27.6522 21.1951" stroke="#555555" stroke-width="2" stroke-linecap="round" stroke-linejoin="round"/>
<path d="M30.4127 18.4522C30.4127 25.0427 29.4098 34.0799 17.7072 34.0799C6.00466 34.0799 5 25.0427 5 18.4522" stroke="#555555" stroke-width="2" stroke-linecap="round" stroke-linejoin="round"/>
<path d="M30.2325 22.4426C30.2325 22.4426 37.1634 18.4469 37.1634 24.7376C37.1634 32.3775 27.9484 29.9129 27.9484 29.9129" stroke="#555555" stroke-width="2" stroke-linecap="round" stroke-linejoin="round"/>
<path d="M29.8292 26.267C30.7 26.8185 32.8628 26.5115 33.0609 26.0475C33.9531 23.8578 30.7143 25.6121 30.4127 25.8387" stroke="#555555" stroke-width="2" stroke-linecap="round" stroke-linejoin="round"/>
<path d="M17.9108 2C21.1032 4.72151 15.1609 7.26278 17.9108 9.60596" stroke="#555555" stroke-width="2" stroke-linecap="round" stroke-linejoin="round"/>
</svg>
