<svg width="36" height="36" viewBox="0 0 36 36" fill="none" xmlns="http://www.w3.org/2000/svg">
<path d="M17.9586 21.8409C26.7722 21.8409 33.9171 19.8618 33.9171 17.4205C33.9171 14.9791 26.7722 13 17.9586 13C9.14489 13 2 14.9791 2 17.4205C2 19.8618 9.14489 21.8409 17.9586 21.8409Z" stroke="#555555" stroke-width="2" stroke-linecap="round" stroke-linejoin="round"/>
<path d="M33.9171 17.4187C33.9171 24.0092 32.668 33.0464 17.9586 33.0464C3.24913 33.0464 2 24.0092 2 17.4187" stroke="#555555" stroke-width="2" stroke-linecap="round" stroke-linejoin="round"/>
<path d="M15.1925 16.4318C16.0522 16.3444 16.9159 16.3027 17.78 16.3069C23.6866 16.3069 28.6296 18.0558 29.7895 20.3758" stroke="#555555" stroke-width="2" stroke-linecap="round" stroke-linejoin="round"/>
<path d="M5.82397 20.2687C6.68052 18.6982 9.28585 17.4133 12.7299 16.753" stroke="#555555" stroke-width="2" stroke-linecap="round" stroke-linejoin="round"/>
<path d="M21.3704 19.305C22.0662 19.305 22.6303 18.7409 22.6303 18.0451C22.6303 17.3492 22.0662 16.7852 21.3704 16.7852C20.6746 16.7852 20.1106 17.3492 20.1106 18.0451C20.1106 18.7409 20.6746 19.305 21.3704 19.305Z" stroke="#555555" stroke-width="2" stroke-miterlimit="10"/>
<path d="M13.9844 18.0451C14.6802 18.0451 15.2443 17.481 15.2443 16.7852C15.2443 16.0894 14.6802 15.5253 13.9844 15.5253C13.2887 15.5253 12.7246 16.0894 12.7246 16.7852C12.7246 17.481 13.2887 18.0451 13.9844 18.0451Z" stroke="#555555" stroke-width="2" stroke-miterlimit="10"/>
<path d="M16.9217 21.6357C17.6175 21.6357 18.1815 21.0716 18.1815 20.3758C18.1815 19.6799 17.6175 19.1158 16.9217 19.1158C16.2259 19.1158 15.6619 19.6799 15.6619 20.3758C15.6619 21.0716 16.2259 21.6357 16.9217 21.6357Z" stroke="#555555" stroke-width="2" stroke-miterlimit="10"/>
<path d="M26.7203 20.8576C25.4309 19.7493 24.0588 18.741 22.616 17.8416" stroke="#555555" stroke-width="2" stroke-linecap="round" stroke-linejoin="round"/>
<path d="M20.778 16.9493C19.8299 16.5422 18.8116 16.324 17.78 16.3069" stroke="#555555" stroke-width="2" stroke-linecap="round" stroke-linejoin="round"/>
<path d="M17.8336 21.8392C17.7087 21.7321 17.566 21.625 17.4232 21.5179" stroke="#555555" stroke-width="2" stroke-linecap="round" stroke-linejoin="round"/>
<path d="M8.96472 18.038C11.3617 18.1321 13.6825 18.9057 15.6565 20.2687" stroke="#555555" stroke-width="2" stroke-linecap="round" stroke-linejoin="round"/>
</svg>
