<svg width="50" height="80" viewBox="0 0 50 80" fill="none" xmlns="http://www.w3.org/2000/svg">
<path d="M49.4572 24.2424C49.4572 48.4848 25.2148 48.4848 25.2148 80C25.2148 48.4848 0.972412 48.4848 0.972412 24.2424C0.972412 10.9091 11.8815 0 25.2148 0C38.5482 0 49.4572 10.9091 49.4572 24.2424Z" fill="#F17F15"/>
<path d="M25.2144 42.0607C35.0551 42.0607 43.0326 34.0832 43.0326 24.2425C43.0326 14.4018 35.0551 6.42432 25.2144 6.42432C15.3737 6.42432 7.39624 14.4018 7.39624 24.2425C7.39624 34.0832 15.3737 42.0607 25.2144 42.0607Z" fill="white"/>
<path d="M25.2149 26.7877C32.4448 26.7877 38.3058 25.1597 38.3058 23.1514C38.3058 21.1431 32.4448 19.515 25.2149 19.515C17.985 19.515 12.124 21.1431 12.124 23.1514C12.124 25.1597 17.985 26.7877 25.2149 26.7877Z" stroke="#F17F15" stroke-miterlimit="10" stroke-linecap="round" stroke-linejoin="round"/>
<path d="M38.3058 23.1514C38.3058 28.6059 37.2149 35.9999 25.2149 35.9999C13.0937 35.9999 12.124 28.6059 12.124 23.1514" stroke="#F17F15" stroke-miterlimit="10" stroke-linecap="round" stroke-linejoin="round"/>
<path d="M22.9119 22.4242C23.6391 22.303 24.3664 22.303 25.0937 22.303C29.9422 22.303 34.0634 23.7575 35.0331 25.6969" stroke="#F17F15" stroke-miterlimit="10" stroke-linecap="round" stroke-linejoin="round"/>
<path d="M15.1543 25.5756C15.8816 24.2423 18.0634 23.2726 20.8513 22.6665" stroke="#F17F15" stroke-miterlimit="10" stroke-linecap="round" stroke-linejoin="round"/>
<path d="M28.0028 24.8483C28.6053 24.8483 29.0937 24.3599 29.0937 23.7574C29.0937 23.1549 28.6053 22.6665 28.0028 22.6665C27.4003 22.6665 26.9119 23.1549 26.9119 23.7574C26.9119 24.3599 27.4003 24.8483 28.0028 24.8483Z" stroke="#F17F15" stroke-miterlimit="10"/>
<path d="M21.8211 23.7574C22.4236 23.7574 22.912 23.269 22.912 22.6665C22.912 22.064 22.4236 21.5756 21.8211 21.5756C21.2186 21.5756 20.7302 22.064 20.7302 22.6665C20.7302 23.269 21.2186 23.7574 21.8211 23.7574Z" stroke="#F17F15" stroke-miterlimit="10"/>
<path d="M24.2454 26.7878C24.8479 26.7878 25.3363 26.2994 25.3363 25.6969C25.3363 25.0944 24.8479 24.606 24.2454 24.606C23.643 24.606 23.1545 25.0944 23.1545 25.6969C23.1545 26.2994 23.643 26.7878 24.2454 26.7878Z" stroke="#F17F15" stroke-miterlimit="10"/>
<path d="M32.3664 26.0606C31.3967 25.2121 30.1845 24.3636 28.9724 23.6364" stroke="#F17F15" stroke-miterlimit="10" stroke-linecap="round" stroke-linejoin="round"/>
<path d="M27.5177 22.7878C26.6693 22.4242 25.942 22.303 25.0935 22.303" stroke="#F17F15" stroke-miterlimit="10" stroke-linecap="round" stroke-linejoin="round"/>
<path d="M25.0934 26.7878C24.9722 26.6666 24.8509 26.6666 24.7297 26.5454" stroke="#F17F15" stroke-miterlimit="10" stroke-linecap="round" stroke-linejoin="round"/>
<path d="M17.7 23.7574C19.6393 23.7574 21.5787 24.4847 23.1545 25.5756" stroke="#F17F15" stroke-miterlimit="10" stroke-linecap="round" stroke-linejoin="round"/>
</svg>
