<svg width="49" height="80" viewBox="0 0 49 80" fill="none" xmlns="http://www.w3.org/2000/svg">
<path d="M48.9709 24.2424C48.9709 48.4848 24.7285 48.4848 24.7285 80C24.7285 48.4848 0.486084 48.4848 0.486084 24.2424C0.486084 10.9091 11.3952 0 24.7285 0C38.0618 0 48.9709 10.9091 48.9709 24.2424Z" fill="#F17F15"/>
<path d="M24.7281 42.0607C34.5688 42.0607 42.5463 34.0832 42.5463 24.2425C42.5463 14.4018 34.5688 6.42432 24.7281 6.42432C14.8874 6.42432 6.90991 14.4018 6.90991 24.2425C6.90991 34.0832 14.8874 42.0607 24.7281 42.0607Z" fill="white"/>
<path d="M35.1527 20.6061C35.1527 21.8183 35.1527 22.788 24.6072 22.788C14.0618 22.788 14.0618 21.8183 14.0618 20.6061C14.0618 19.394 16.6072 14.9092 24.6072 14.9092C32.6072 14.9092 35.1527 19.394 35.1527 20.6061Z" stroke="#F17F15" stroke-miterlimit="10" stroke-linecap="round" stroke-linejoin="round"/>
<path d="M32.8495 31.2728C35.1526 31.5153 35.1526 31.7577 35.1526 32.1213C35.1526 32.7274 36.1223 34.4243 24.6071 34.4243C13.092 34.4243 14.0617 32.7274 14.0617 32.1213C14.0617 31.7577 14.0617 31.394 16.3647 31.2728" stroke="#F17F15" stroke-miterlimit="10" stroke-linecap="round" stroke-linejoin="round"/>
<path d="M34.5468 30.5455C34.5468 32.1212 14.9104 32.1212 14.9104 30.5455V27.8788C14.9104 29.0909 34.5468 29.0909 34.5468 27.8788V30.5455Z" stroke="#F17F15" stroke-miterlimit="10" stroke-linecap="round" stroke-linejoin="round"/>
<path d="M34.5468 21.9395V23.6364C34.5468 25.2122 14.9104 25.2122 14.9104 23.6364V21.9395" stroke="#F17F15" stroke-miterlimit="10" stroke-linecap="round" stroke-linejoin="round"/>
<path d="M35.6375 26.3031C34.9102 27.7576 32.6072 26.6667 32.6072 26.6667C32.6072 26.6667 31.2739 25.8183 28.8496 26.7879C27.2739 27.394 26.4254 26.3031 24.6072 26.3031C22.789 26.3031 21.9405 27.394 20.3648 26.7879C17.9405 25.8183 16.6072 26.6667 16.6072 26.6667C16.6072 26.6667 14.4254 27.7576 13.5769 26.3031" stroke="#F17F15" stroke-miterlimit="10" stroke-linecap="round" stroke-linejoin="round"/>
</svg>
