<svg width="36" height="36" viewBox="0 0 36 36" fill="none" xmlns="http://www.w3.org/2000/svg">
<path d="M32.4295 12.8273C32.4295 14.5066 32.4295 15.8611 18.0538 15.8611C3.6781 15.8611 3.6781 14.4994 3.6781 12.8273C3.6781 11.1551 7.18638 5 18.0538 5C28.9213 5 32.4295 11.1426 32.4295 12.8273Z" stroke="#F17F15" stroke-width="2" stroke-linecap="round" stroke-linejoin="round"/>
<path d="M29.296 27.3949C32.4385 27.6822 32.4385 28.1302 32.4385 28.6245C32.4385 29.4686 33.825 31.7511 18.0646 31.7511C2.3041 31.7511 3.6728 29.4686 3.6728 28.6316C3.6728 28.1373 3.6728 27.6894 6.81525 27.402" stroke="#F17F15" stroke-width="2" stroke-linecap="round" stroke-linejoin="round"/>
<path d="M31.5123 26.458C31.5123 28.6245 4.59534 28.6245 4.59534 26.458V22.7621C4.59534 24.4896 31.5123 24.4896 31.5123 22.7621V26.458Z" stroke="#F17F15" stroke-width="2" stroke-linecap="round" stroke-linejoin="round"/>
<path d="M31.5087 14.619V16.9015C31.5087 19.0698 4.59888 19.0698 4.59888 16.9015V14.619" stroke="#F17F15" stroke-width="2" stroke-linecap="round" stroke-linejoin="round"/>
<path d="M33.1076 20.5081C32.037 22.4533 28.9712 21.0078 28.9712 21.0078C28.1695 20.6369 27.2923 20.4582 26.4093 20.4861C25.5264 20.514 24.6622 20.7476 23.8855 21.1684C21.6924 22.0607 20.5967 20.5081 18.0538 20.5081C15.5109 20.5081 14.4153 22.0679 12.2222 21.1684C11.4454 20.7476 10.5812 20.514 9.6983 20.4861C8.81537 20.4582 7.93813 20.6369 7.13641 21.0078C7.13641 21.0078 4.07782 22.4533 3 20.5081" stroke="#F17F15" stroke-width="2" stroke-linecap="round" stroke-linejoin="round"/>
</svg>
