<svg width="40" height="35" viewBox="0 0 40 35" fill="none" xmlns="http://www.w3.org/2000/svg">
<path d="M39.6786 4.21338H34.8214" stroke="#F17F15" stroke-width="2"/>
<path d="M29.9643 4.21338H0.821411" stroke="#F17F15" stroke-width="2"/>
<path d="M35.0357 4.21341C35.0357 5.67302 33.8525 6.85627 32.3929 6.85627C30.9332 6.85627 29.75 5.67302 29.75 4.21341C29.75 2.7538 30.9332 1.57056 32.3929 1.57056C33.8525 1.57056 35.0357 2.7538 35.0357 4.21341Z" stroke="#F17F15" stroke-width="2"/>
<path d="M32.3928 6.64193C33.7341 6.64193 34.8214 5.55462 34.8214 4.21336C34.8214 2.8721 33.7341 1.78479 32.3928 1.78479C31.0515 1.78479 29.9642 2.8721 29.9642 4.21336C29.9642 5.55462 31.0515 6.64193 32.3928 6.64193Z" stroke="#F17F15" stroke-width="2"/>
<path d="M39.6786 17.5706H11.75" stroke="#F17F15" stroke-width="2"/>
<path d="M6.89284 17.5706H0.821411" stroke="#F17F15" stroke-width="2"/>
<path d="M11.9643 17.5706C11.9643 19.0302 10.7811 20.2134 9.32145 20.2134C7.86184 20.2134 6.67859 19.0302 6.67859 17.5706C6.67859 16.111 7.86184 14.9277 9.32145 14.9277C10.7811 14.9277 11.9643 16.111 11.9643 17.5706Z" stroke="#F17F15" stroke-width="2"/>
<path d="M9.32139 19.9991C10.6627 19.9991 11.75 18.9118 11.75 17.5705C11.75 16.2293 10.6627 15.142 9.32139 15.142C7.98013 15.142 6.89282 16.2293 6.89282 17.5705C6.89282 18.9118 7.98013 19.9991 9.32139 19.9991Z" stroke="#F17F15" stroke-width="2"/>
<path d="M39.6786 30.9277H22.6786" stroke="#F17F15" stroke-width="2"/>
<path d="M17.8214 30.9277H0.821411" stroke="#F17F15" stroke-width="2"/>
<path d="M22.8929 30.9276C22.8929 32.3873 21.7096 33.5705 20.25 33.5705C18.7904 33.5705 17.6072 32.3873 17.6072 30.9276C17.6072 29.468 18.7904 28.2848 20.25 28.2848C21.7096 28.2848 22.8929 29.468 22.8929 30.9276Z" stroke="#F17F15" stroke-width="2"/>
<path d="M20.25 33.3563C21.5912 33.3563 22.6786 32.269 22.6786 30.9277C22.6786 29.5865 21.5912 28.4991 20.25 28.4991C18.9087 28.4991 17.8214 29.5865 17.8214 30.9277C17.8214 32.269 18.9087 33.3563 20.25 33.3563Z" stroke="#F17F15" stroke-width="2"/>
</svg>
