<svg width="51" height="51" viewBox="0 0 51 51" fill="none" xmlns="http://www.w3.org/2000/svg">
<path d="M45.4286 11.6428H40.5714" stroke="white" stroke-width="2"/>
<path d="M35.7143 11.6428H6.57141" stroke="white" stroke-width="2"/>
<path d="M40.7857 11.6429C40.7857 13.1025 39.6025 14.2857 38.1429 14.2857C36.6832 14.2857 35.5 13.1025 35.5 11.6429C35.5 10.1832 36.6832 9 38.1429 9C39.6025 9 40.7857 10.1832 40.7857 11.6429Z" stroke="white" stroke-width="2"/>
<path d="M38.1428 14.0714C39.4841 14.0714 40.5714 12.9841 40.5714 11.6428C40.5714 10.3015 39.4841 9.21423 38.1428 9.21423C36.8015 9.21423 35.7142 10.3015 35.7142 11.6428C35.7142 12.9841 36.8015 14.0714 38.1428 14.0714Z" stroke="white" stroke-width="2"/>
<path d="M45.4286 25H17.5" stroke="white" stroke-width="2"/>
<path d="M12.6428 25H6.57141" stroke="white" stroke-width="2"/>
<path d="M17.7143 25C17.7143 26.4596 16.5311 27.6429 15.0714 27.6429C13.6118 27.6429 12.4286 26.4596 12.4286 25C12.4286 23.5404 13.6118 22.3572 15.0714 22.3572C16.5311 22.3572 17.7143 23.5404 17.7143 25Z" stroke="white" stroke-width="2"/>
<path d="M15.0714 27.4286C16.4127 27.4286 17.5 26.3412 17.5 25C17.5 23.6587 16.4127 22.5714 15.0714 22.5714C13.7301 22.5714 12.6428 23.6587 12.6428 25C12.6428 26.3412 13.7301 27.4286 15.0714 27.4286Z" stroke="white" stroke-width="2"/>
<path d="M45.4286 38.3572H28.4286" stroke="white" stroke-width="2"/>
<path d="M23.5714 38.3572H6.57141" stroke="white" stroke-width="2"/>
<path d="M28.6429 38.3571C28.6429 39.8167 27.4596 40.9999 26 40.9999C24.5404 40.9999 23.3572 39.8167 23.3572 38.3571C23.3572 36.8975 24.5404 35.7142 26 35.7142C27.4596 35.7142 28.6429 36.8975 28.6429 38.3571Z" stroke="white" stroke-width="2"/>
<path d="M26 40.7857C27.3412 40.7857 28.4286 39.6984 28.4286 38.3572C28.4286 37.0159 27.3412 35.9286 26 35.9286C24.6587 35.9286 23.5714 37.0159 23.5714 38.3572C23.5714 39.6984 24.6587 40.7857 26 40.7857Z" stroke="white" stroke-width="2"/>
</svg>
