<svg width="49" height="80" viewBox="0 0 49 80" fill="none" xmlns="http://www.w3.org/2000/svg">
<path d="M48.7002 24.2424C48.7002 48.4848 24.4578 48.4848 24.4578 80C24.4578 48.4848 0.215332 48.4848 0.215332 24.2424C0.215332 10.9091 11.1244 0 24.4578 0C37.9123 0 48.7002 10.9091 48.7002 24.2424Z" fill="#F17F15"/>
<path d="M24.4573 42.0607C34.298 42.0607 42.2755 34.0832 42.2755 24.2425C42.2755 14.4018 34.298 6.42432 24.4573 6.42432C14.6166 6.42432 6.63916 14.4018 6.63916 24.2425C6.63916 34.0832 14.6166 42.0607 24.4573 42.0607Z" fill="white"/>
<path d="M35.1246 23.2728C35.2458 23.8789 35.367 24.4849 35.367 25.2122C35.367 27.1516 35.0034 28.8486 33.1852 29.6971L24.4579 33.3334C23.6095 33.9395 22.3974 34.3031 20.458 34.3031C15.7307 34.3031 15.0034 32.1213 15.0034 29.3334C15.0034 28.9698 15.0034 28.7274 15.0034 28.4849" stroke="#F17F15" stroke-miterlimit="10"/>
<path d="M29.1851 26.4242C31.0032 25.8181 32.579 25.0909 33.1851 24.7272C34.7608 23.6363 36.579 23.1515 34.3972 21.0909C32.2154 18.9091 28.7002 19.2727 26.882 19.6363C25.4275 20 15.0033 23.6363 15.0033 23.6363C13.9124 24.2424 13.6699 25.0909 13.6699 26.0606C13.6699 27.7575 14.3972 29.0909 19.1245 29.0909C21.0639 29.0909 22.276 28.8485 23.1245 28.4848C23.1245 28.4848 24.4578 28.1212 26.1548 27.5151" stroke="#F17F15" stroke-miterlimit="10" stroke-linejoin="round"/>
<path d="M20.3367 21.8181C24.4579 23.8787 26.5185 26.0605 25.9124 27.8787V33.0908" stroke="#F17F15" stroke-miterlimit="10" stroke-linejoin="round"/>
<path d="M23.8518 20.606C27.973 22.6666 29.67 24.606 29.0639 26.5454V31.7575" stroke="#F17F15" stroke-miterlimit="10" stroke-linejoin="round"/>
</svg>
