<svg width="36" height="36" viewBox="0 0 36 36" fill="none" xmlns="http://www.w3.org/2000/svg">
<path d="M33.8212 15.7939C34.0427 16.7291 34.1464 17.6883 34.1299 18.6492C34.1299 21.5046 33.5946 23.9656 30.8857 25.1969L18.0607 30.6364C16.3041 31.7608 14.2278 32.2798 12.1488 32.114C5.1893 32.114 4.14539 28.8304 4.14539 24.7651C4.14539 24.3136 4.1668 23.8835 4.20784 23.4516" stroke="#555555" stroke-width="2" stroke-miterlimit="10"/>
<path d="M24.9971 20.391C27.0365 19.7514 29.0087 18.9146 30.8859 17.8926C33.2681 16.2293 35.8824 15.6547 32.7346 12.5156C29.5868 9.37646 24.3814 9.83867 21.6102 10.4205C19.4563 10.872 4.04379 16.3096 4.04379 16.3096C3.38877 16.6193 2.84349 17.1209 2.48043 17.748C2.11738 18.375 1.95374 19.0977 2.01127 19.8199C2.01127 22.3023 3.05876 24.3136 10.0146 24.3136C12.026 24.4248 14.0385 24.1173 15.9248 23.4105C15.9248 23.4105 17.8556 22.8163 20.3592 21.9954" stroke="#555555" stroke-width="2" stroke-linejoin="round"/>
<path d="M11.9508 13.6649C18.0983 16.6077 21.1212 19.8842 20.2397 22.6003V30.1992" stroke="#555555" stroke-width="2" stroke-linejoin="round"/>
<path d="M17.2417 11.8642C23.2649 14.9373 25.8357 17.8319 24.9542 20.5481V28.1469" stroke="#555555" stroke-width="2" stroke-linejoin="round"/>
</svg>
