<svg width="36" height="36" viewBox="0 0 36 36" fill="none" xmlns="http://www.w3.org/2000/svg">
<path d="M17.9586 21.8409C26.7722 21.8409 33.9171 19.8618 33.9171 17.4205C33.9171 14.9791 26.7722 13 17.9586 13C9.14489 13 2 14.9791 2 17.4205C2 19.8618 9.14489 21.8409 17.9586 21.8409Z" stroke="#555555" stroke-width="2" stroke-linecap="round" stroke-linejoin="round"/>
<path d="M30.4482 19.6512C28.0453 17.6976 25.0971 16.535 22.0076 16.3229H21.9897" stroke="#555555" stroke-width="2" stroke-linecap="round" stroke-linejoin="round"/>
<path d="M5.48328 19.6512C7.95603 17.6606 10.9871 16.4892 14.1558 16.2997" stroke="#555555" stroke-width="2" stroke-linecap="round" stroke-linejoin="round"/>
<path d="M33.9189 17.4187C33.9189 24.0092 32.6591 33.0464 17.9603 33.0464C3.26162 33.0464 2 24.0092 2 17.4187" stroke="#555555" stroke-width="2" stroke-linecap="round" stroke-linejoin="round"/>
<path d="M22.0522 16.248C22.0522 16.7227 22.0522 17.8542 18.0907 17.8542C14.1292 17.8542 14.1292 16.7174 14.1292 16.248C14.1292 15.7787 15.0963 14.0333 18.0907 14.0333C21.085 14.0333 22.0522 15.7733 22.0522 16.248Z" stroke="#555555" stroke-width="2" stroke-linecap="round" stroke-linejoin="round"/>
<path d="M18.0818 17.8595C21.2657 17.7963 24.3695 18.8601 26.8453 20.8629" stroke="#555555" stroke-width="2" stroke-linecap="round" stroke-linejoin="round"/>
<path d="M8.65601 17.8594C12.1063 18.1442 15.3711 19.5407 17.9603 21.8391" stroke="#555555" stroke-width="2" stroke-linecap="round" stroke-linejoin="round"/>
</svg>
