<svg width="50" height="80" viewBox="0 0 50 80" fill="none" xmlns="http://www.w3.org/2000/svg">
<path d="M49.2141 24.2424C49.2141 48.4848 24.9717 48.4848 24.9717 80C24.9717 48.4848 0.729248 48.4848 0.729248 24.2424C0.729248 10.9091 11.6383 0 24.9717 0C38.4262 0 49.2141 10.9091 49.2141 24.2424Z" fill="#F17F15"/>
<path d="M24.9713 42.0607C34.812 42.0607 42.7895 34.0832 42.7895 24.2425C42.7895 14.4018 34.812 6.42432 24.9713 6.42432C15.1305 6.42432 7.15308 14.4018 7.15308 24.2425C7.15308 34.0832 15.1305 42.0607 24.9713 42.0607Z" fill="white"/>
<path d="M24.9716 26.5456C32.1346 26.5456 37.9414 24.9175 37.9414 22.9092C37.9414 20.9009 32.1346 19.2728 24.9716 19.2728C17.8087 19.2728 12.002 20.9009 12.002 22.9092C12.002 24.9175 17.8087 26.5456 24.9716 26.5456Z" stroke="#F17F15" stroke-miterlimit="10" stroke-linecap="round" stroke-linejoin="round"/>
<path d="M35.1534 24.7275C33.9412 23.3941 31.3958 22.4244 28.3655 22.0608" stroke="#F17F15" stroke-miterlimit="10" stroke-linecap="round" stroke-linejoin="round"/>
<path d="M14.9109 24.7275C16.123 23.3941 18.7897 22.4244 21.9412 22.0608" stroke="#F17F15" stroke-miterlimit="10" stroke-linecap="round" stroke-linejoin="round"/>
<path d="M37.9414 22.9092C37.9414 28.2425 36.9716 35.6365 24.9716 35.6365C13.0929 35.6365 12.002 28.3637 12.002 22.9092" stroke="#F17F15" stroke-miterlimit="10" stroke-linecap="round" stroke-linejoin="round"/>
<path d="M28.2442 21.9394C28.2442 22.303 28.2442 23.2727 24.9715 23.2727C21.6987 23.2727 21.6987 22.303 21.6987 21.9394C21.6987 21.5758 22.426 20.1212 24.9715 20.1212C27.5169 20.1212 28.2442 21.5758 28.2442 21.9394Z" stroke="#F17F15" stroke-miterlimit="10" stroke-linecap="round" stroke-linejoin="round"/>
<path d="M25.0928 23.2729C27.7594 23.2729 30.1837 24.1214 32.2443 25.6972" stroke="#F17F15" stroke-miterlimit="10" stroke-linecap="round" stroke-linejoin="round"/>
<path d="M17.4563 23.2729C20.123 23.2729 23.0321 24.8487 24.9714 26.5457" stroke="#F17F15" stroke-miterlimit="10" stroke-linecap="round" stroke-linejoin="round"/>
</svg>
