<svg width="50" height="50" viewBox="0 0 50 50" fill="none" xmlns="http://www.w3.org/2000/svg">
<path d="M40.8992 41.86V38.1499C40.8992 36.1819 40.1012 34.2945 38.6808 32.9029C37.2604 31.5113 35.3339 30.7295 33.3252 30.7295H18.1771C16.1683 30.7295 14.2418 31.5113 12.8214 32.9029C11.401 34.2945 10.603 36.1819 10.603 38.1499V41.86" stroke="#F17F15" stroke-width="2" stroke-linecap="round" stroke-linejoin="round"/>
<path d="M33.3252 15.8864C33.3252 17.354 32.881 18.7887 32.0488 20.009C31.2165 21.2292 30.0336 22.1803 28.6496 22.742C27.2657 23.3036 25.7428 23.4505 24.2736 23.1642C22.8043 22.8779 21.4548 22.1712 20.3955 21.1334C19.3363 20.0957 18.6149 18.7735 18.3227 17.3341C18.0304 15.8947 18.1804 14.4027 18.7537 13.0468C19.3269 11.6909 20.2977 10.532 21.5433 9.71662C22.7888 8.90126 24.2532 8.46606 25.7512 8.46606C27.7599 8.46606 29.6864 9.24785 31.1068 10.6394C32.5272 12.031 33.3252 13.9184 33.3252 15.8864V15.8864Z" stroke="#F17F15" stroke-width="2" stroke-linecap="round" stroke-linejoin="round"/>
</svg>
