<svg width="36" height="36" viewBox="0 0 36 36" fill="none" xmlns="http://www.w3.org/2000/svg">
<path d="M7.29019 22.1855C9.21906 21.7771 10.4922 20.0737 10.1339 18.3808C9.77555 16.6878 7.9214 15.6464 5.99253 16.0548C4.06366 16.4631 2.79049 18.1665 3.14883 19.8595C3.50717 21.5524 5.36132 22.5938 7.29019 22.1855Z" stroke="#555555" stroke-width="2" stroke-linejoin="round"/>
<path d="M4.62927 16.6207L17.3366 3.66235C18.0907 3.14549 19.0065 2.91932 19.9145 3.0257C20.8225 3.13208 21.6612 3.56381 22.2755 4.24098C22.5093 4.99499 22.5481 5.79597 22.3883 6.56906C22.2285 7.34214 21.8753 8.06209 21.3617 8.66159L8.65273 21.6199" stroke="#555555" stroke-width="2" stroke-linejoin="round"/>
<path d="M11.3554 27.2347C13.2842 26.8264 14.5574 25.123 14.1991 23.43C13.8407 21.7371 11.9866 20.6957 10.0577 21.104C8.12884 21.5124 6.85568 23.2158 7.21402 24.9087C7.57236 26.6017 9.42651 27.6431 11.3554 27.2347Z" stroke="#555555" stroke-width="2" stroke-linejoin="round"/>
<path d="M21.4018 8.71159C22.1557 8.19438 23.0716 7.968 23.9797 8.07439C24.8878 8.18078 25.7266 8.61274 26.3406 9.29022C26.5731 10.0445 26.6111 10.8453 26.451 11.6182C26.291 12.3911 25.9381 13.1109 25.4252 13.7108L12.7179 26.6675" stroke="#555555" stroke-width="2" stroke-linejoin="round"/>
<path d="M15.402 32.2606C17.3309 31.8523 18.604 30.1489 18.2457 28.4559C17.8874 26.763 16.0332 25.7216 14.1043 26.1299C12.1755 26.5382 10.9023 28.2417 11.2606 29.9346C11.619 31.6276 13.4731 32.669 15.402 32.2606Z" stroke="#555555" stroke-width="2" stroke-linejoin="round"/>
<path d="M25.4468 13.7375C26.2009 13.2207 27.1167 12.9945 28.0247 13.1009C28.9327 13.2073 29.7715 13.639 30.3857 14.3162C30.6195 15.0702 30.6583 15.8712 30.4985 16.6443C30.3387 17.4173 29.9855 18.1373 29.472 18.7368L16.7646 31.6951" stroke="#555555" stroke-width="2" stroke-linejoin="round"/>
<path d="M32.9335 32.9458L24.5331 23.7661" stroke="#555555" stroke-width="2" stroke-miterlimit="10" stroke-linecap="round"/>
<path d="M12.4594 10.5342L10.0166 7.85779" stroke="#555555" stroke-width="2" stroke-miterlimit="10" stroke-linecap="round"/>
</svg>
