<svg width="49" height="80" viewBox="0 0 49 80" fill="none" xmlns="http://www.w3.org/2000/svg">
<path d="M48.4848 24.2424C48.4848 48.4848 24.2424 48.4848 24.2424 80C24.2424 48.4848 0 48.4848 0 24.2424C0 10.9091 10.9091 0 24.2424 0C37.5758 0 48.4848 10.9091 48.4848 24.2424Z" fill="#F17F15"/>
<path d="M24.2423 42.0607C34.083 42.0607 42.0604 34.0832 42.0604 24.2425C42.0604 14.4018 34.083 6.42432 24.2423 6.42432C14.4015 6.42432 6.42407 14.4018 6.42407 24.2425C6.42407 34.0832 14.4015 42.0607 24.2423 42.0607Z" fill="white"/>
<path d="M15.5125 26.6238C16.8878 26.3327 17.7892 25.088 17.5258 23.8436C17.2623 22.5993 15.9339 21.8266 14.5586 22.1177C13.1833 22.4089 12.2819 23.6536 12.5453 24.898C12.8087 26.1423 14.1372 26.915 15.5125 26.6238Z" stroke="#F17F15" stroke-miterlimit="10" stroke-linejoin="round"/>
<path d="M13.5764 22.5455L22.7885 13.0909C24.0007 12.3637 25.5764 12.4849 26.4249 13.4546C26.6673 13.697 26.7885 15.1516 25.8188 16.7273L16.6067 26.1819" stroke="#F17F15" stroke-miterlimit="10" stroke-linejoin="round"/>
<path d="M18.534 30.2451C19.9093 29.9539 20.8107 28.7092 20.5472 27.4648C20.2838 26.2205 18.9554 25.4478 17.5801 25.7389C16.2048 26.0301 15.3034 27.2748 15.5668 28.5192C15.8302 29.7635 17.1587 30.5362 18.534 30.2451Z" stroke="#F17F15" stroke-miterlimit="10" stroke-linejoin="round"/>
<path d="M25.8185 16.7273C27.0307 16 28.6064 16.1212 29.4549 17.0909C29.6973 17.3334 29.8185 18.7879 28.8488 20.3637L19.6367 29.8182" stroke="#F17F15" stroke-miterlimit="10" stroke-linejoin="round"/>
<path d="M21.4405 33.8884C22.8158 33.5972 23.7171 32.3525 23.4537 31.1082C23.1903 29.8638 21.8619 29.0911 20.4866 29.3823C19.1112 29.6734 18.2099 30.9182 18.4733 32.1625C18.7367 33.4068 20.0652 34.1795 21.4405 33.8884Z" stroke="#F17F15" stroke-miterlimit="10" stroke-linejoin="round"/>
<path d="M28.728 20.4849C29.9401 19.7576 31.5158 19.8788 32.3643 20.8485C32.6067 21.0909 32.728 22.5455 31.7583 24.1212L22.5461 33.5758" stroke="#F17F15" stroke-miterlimit="10" stroke-linejoin="round"/>
<path d="M34.1822 34.4242L28.1216 27.7576" stroke="#F17F15" stroke-miterlimit="10" stroke-linecap="round"/>
<path d="M19.2731 18.0606L17.5762 16.1212" stroke="#F17F15" stroke-miterlimit="10" stroke-linecap="round"/>
</svg>
